<?xml version="1.0" standalone="no"?>
<!DOCTYPE svg PUBLIC "-//W3C//DTD SVG 20010904//EN"
 "http://www.w3.org/TR/2001/REC-SVG-20010904/DTD/svg10.dtd">
<svg version="1.0" xmlns="http://www.w3.org/2000/svg"
 width="700.000000pt" height="700.000000pt" viewBox="0 0 700.000000 700.000000"
 preserveAspectRatio="xMidYMid meet">
<metadata>
Created by potrace 1.14, written by Peter Selinger 2001-2017
</metadata>
<g transform="translate(0.000000,700.000000) scale(0.100000,-0.100000)"
fill="#000000" stroke="none">
<path d="M4457 6474 c-1 -1 -47 -4 -102 -8 -194 -11 -439 -64 -624 -132 -803
-300 -1378 -1018 -1570 -1959 -11 -55 -23 -120 -25 -145 -3 -25 -8 -67 -11
-95 -11 -83 -13 -114 -20 -271 -7 -175 -24 -147 137 -233 110 -58 297 -135
454 -186 59 -19 108 -35 110 -35 1 0 1 8 -1 18 -22 118 -23 511 0 702 2 19 7
59 10 89 4 30 9 63 11 75 7 37 26 140 30 161 47 269 199 680 332 895 229 373
627 629 1107 715 48 8 195 19 265 19 76 -1 270 -13 279 -18 3 -2 29 -7 56 -10
28 -4 100 -20 161 -36 403 -107 743 -324 1138 -727 55 -56 101 -101 103 -100
1 2 -4 46 -11 98 -23 155 -35 267 -42 394 -3 66 -8 138 -9 160 -2 22 -4 47 -4
56 -1 16 -210 158 -350 239 -389 224 -780 327 -1274 334 -81 1 -148 2 -150 0z"/>
<path d="M2357 5774 c-1 -1 -60 -4 -132 -8 -71 -3 -141 -8 -155 -10 -14 -3
-52 -7 -85 -11 -235 -25 -481 -112 -664 -233 -234 -155 -405 -471 -437 -804
-5 -58 -5 -257 0 -288 3 -14 7 -46 10 -71 4 -26 15 -81 26 -122 97 -381 369
-662 925 -957 55 -29 104 -56 109 -61 6 -5 -3 -24 -21 -46 -405 -506 -737
-1163 -1015 -2013 -44 -135 -84 -254 -88 -265 -31 -75 -127 -351 -123 -355 2
-2 177 -4 388 -5 l385 0 1 100 c1 138 5 193 24 314 91 599 424 1331 931 2047
l44 61 142 -48 c237 -80 452 -138 638 -174 30 -6 252 -45 255 -45 1 0 1 -152
1 -337 -1 -186 2 -346 6 -355 15 -31 166 -138 280 -197 108 -56 198 -92 263
-105 l30 -7 1 1458 c0 1577 4 1764 39 2083 2 19 6 62 10 95 3 33 8 76 10 95 3
19 7 55 9 80 12 115 18 165 22 172 3 4 -92 6 -210 5 l-214 -2 -83 -57 c-90
-61 -115 -82 -194 -157 -57 -54 -99 -100 -137 -151 l-27 -36 34 -19 c64 -34
113 -118 142 -243 13 -58 16 -193 18 -1002 l2 -936 -36 4 c-82 7 -280 38 -313
48 -10 3 -30 7 -45 10 -238 38 -662 178 -894 295 -408 205 -652 433 -738 690
-37 113 -50 202 -46 329 11 380 277 714 657 824 94 27 188 42 300 47 26 1 51
5 56 8 5 3 31 40 59 82 50 74 169 229 184 239 4 3 9 12 11 20 2 12 -26 14
-175 14 -98 1 -179 0 -180 0z"/>
<path d="M2423 2782 c-51 -76 -95 -145 -98 -154 -7 -18 62 -161 136 -285 262
-433 732 -803 1244 -980 276 -95 540 -138 840 -136 460 1 818 90 1155 286 78
45 263 172 385 264 l130 98 1 120 c2 179 16 422 29 492 2 13 2 23 0 23 -3 0
-24 -21 -47 -47 -109 -121 -270 -281 -338 -338 -262 -218 -666 -407 -995 -464
-33 -6 -73 -13 -90 -16 -136 -24 -430 -24 -570 0 -220 39 -428 122 -601 240
-269 183 -508 498 -630 827 l-28 78 -56 15 c-30 9 -125 38 -212 65 -86 28
-158 50 -160 50 -1 0 -44 -62 -95 -138z"/>
<path d="M3509 1288 c0 -18 -2 -51 -4 -73 -2 -22 -6 -76 -9 -120 -7 -77 -32
-303 -41 -355 -2 -14 -7 -45 -10 -70 -4 -25 -10 -61 -14 -80 -14 -70 -46 -65
379 -65 379 0 385 0 384 20 -2 29 -14 125 -19 149 -2 12 -7 39 -10 61 -3 22
-10 67 -15 100 -5 33 -12 78 -14 100 -3 22 -8 58 -11 80 -3 22 -8 56 -11 75
-5 35 -17 49 -44 51 -8 0 -22 2 -30 4 -8 2 -31 7 -50 10 -70 12 -228 58 -347
101 -67 24 -124 44 -127 44 -3 0 -6 -15 -7 -32z"/>
</g>
</svg>
