<?xml version="1.0" standalone="no"?>
<!DOCTYPE svg PUBLIC "-//W3C//DTD SVG 20010904//EN"
 "http://www.w3.org/TR/2001/REC-SVG-20010904/DTD/svg10.dtd">
<svg version="1.0" xmlns="http://www.w3.org/2000/svg"
 width="680.000000pt" height="680.000000pt" viewBox="0 0 680.000000 680.000000"
 preserveAspectRatio="xMidYMid meet">
<metadata>
Created by potrace 1.14, written by Peter Selinger 2001-2017
</metadata>
<g transform="translate(0.000000,680.000000) scale(0.100000,-0.100000)"
fill="#000000" stroke="none">
<path d="M2253 6783 c-3 -6 1 -38 8 -70 7 -32 13 -65 14 -73 1 -8 7 -42 13
-75 7 -33 14 -78 17 -100 3 -22 8 -46 11 -54 2 -7 7 -34 10 -60 3 -25 7 -57
10 -71 2 -14 7 -50 10 -80 3 -30 7 -75 9 -100 14 -132 16 -337 17 -1438 0
-662 3 -1200 6 -1198 3 3 10 2 16 -3 6 -4 20 -11 31 -14 11 -3 76 -22 145 -41
105 -31 291 -77 365 -90 66 -12 89 -17 97 -22 4 -3 9 3 9 13 1 10 2 25 3 33 0
8 10 15 21 16 11 0 30 4 42 8 22 7 39 11 94 20 19 3 48 9 64 14 l30 8 0 219
c0 200 -1 218 -17 221 -10 1 -20 -2 -24 -7 -3 -5 -9 -7 -13 -5 -4 3 -25 1 -47
-5 -21 -5 -55 -11 -74 -14 -19 -3 -41 -8 -47 -10 -10 -3 -13 119 -14 588 -1
326 0 597 1 602 1 6 4 89 5 185 9 416 16 697 19 720 6 45 48 174 73 224 33 66
87 118 161 155 34 17 62 29 62 27 0 -3 21 1 48 9 58 17 115 23 257 30 61 2
166 8 235 11 69 4 206 7 305 7 155 0 217 -3 365 -18 27 -3 142 -18 150 -20 3
-1 23 -5 45 -10 22 -4 47 -9 55 -11 235 -48 443 -154 578 -294 43 -44 132
-177 136 -202 1 -7 4 -17 7 -23 35 -60 67 -238 66 -378 0 -228 -78 -444 -222
-616 -41 -50 -174 -181 -214 -211 -18 -14 -45 -35 -59 -47 -15 -13 -30 -23
-34 -23 -4 0 -13 -7 -21 -15 -8 -8 -28 -22 -45 -32 -17 -10 -61 -37 -99 -59
-102 -63 -293 -156 -428 -209 -66 -26 -124 -52 -130 -57 -11 -10 -15 -449 -5
-443 4 2 17 6 31 9 13 3 35 8 49 11 14 3 36 9 50 12 53 13 101 3 264 -51 352
-118 548 -236 786 -475 177 -178 292 -347 363 -536 71 -188 85 -327 52 -525
-34 -202 -211 -486 -395 -635 -78 -63 -109 -85 -119 -85 -6 0 -11 -3 -11 -7 0
-5 -10 -13 -23 -19 -12 -6 -64 -32 -115 -58 -77 -39 -252 -105 -321 -122 -9
-2 -34 -8 -56 -13 -22 -5 -52 -12 -68 -15 -15 -2 -35 -7 -45 -10 -9 -3 -35 -7
-57 -11 -40 -5 -72 -10 -130 -20 -16 -3 -61 -8 -98 -11 -38 -3 -87 -7 -110
-10 -235 -21 -726 -21 -832 -1 -11 3 -42 8 -70 11 -78 11 -234 55 -285 81 -96
49 -131 110 -145 255 -3 36 -8 79 -10 95 -5 33 -14 130 -21 215 -2 30 -6 197
-9 370 -2 173 -4 323 -4 332 -1 12 -17 20 -58 29 -98 20 -353 86 -463 119
-169 51 -150 60 -150 -66 -1 -328 -21 -1031 -35 -1219 -5 -61 -13 -139 -20
-185 -2 -14 -7 -45 -10 -70 -8 -56 -48 -216 -73 -293 -11 -31 -17 -59 -13 -61
3 -2 60 -2 126 0 337 8 1070 16 1735 19 410 2 765 6 790 8 25 2 83 7 128 11
46 4 91 9 100 11 10 1 46 6 82 10 128 13 381 64 514 102 103 29 246 81 261 94
5 5 17 9 27 9 10 0 18 5 18 10 0 6 9 10 20 10 11 0 20 5 20 12 0 6 3 9 6 5 6
-5 131 73 174 108 51 42 200 194 200 203 0 7 4 12 8 12 17 0 156 217 199 310
62 136 97 250 129 420 11 57 13 351 3 403 -4 26 -10 62 -12 80 -3 17 -7 39
-10 47 -3 8 -8 26 -10 40 -15 73 -48 164 -97 265 -131 270 -359 514 -665 714
-67 44 -319 173 -390 201 -11 4 -31 12 -45 18 -14 6 -43 16 -65 23 -22 7 -45
17 -51 21 -7 5 -20 11 -30 13 -31 7 -215 72 -221 78 -3 4 26 21 63 40 209 101
506 291 669 427 55 46 215 208 215 218 0 6 3 12 8 14 4 2 21 21 37 43 98 131
188 354 212 525 12 85 9 369 -5 425 -6 28 -14 61 -16 75 -17 102 -104 298
-187 422 -54 80 -186 212 -264 265 -58 39 -235 135 -235 128 0 -2 -24 7 -52
19 -52 23 -258 90 -308 100 -14 3 -56 12 -93 21 -38 8 -83 17 -100 20 -18 2
-62 9 -98 14 -36 6 -92 13 -125 16 -32 3 -75 7 -94 9 -153 17 -375 20 -1384
21 -878 0 -1150 -3 -1153 -12z"/>
<path d="M1977 6064 c-1 -1 -51 -5 -111 -8 -116 -7 -188 -13 -246 -21 -19 -3
-57 -7 -85 -10 -27 -3 -84 -13 -125 -21 -41 -9 -86 -18 -100 -20 -45 -9 -213
-66 -275 -94 -136 -61 -160 -73 -165 -79 -3 -4 -16 -12 -30 -19 -62 -30 -191
-132 -252 -198 -24 -26 -48 -52 -54 -59 -32 -32 -171 -257 -175 -283 0 -4 -7
-23 -16 -42 -28 -68 -71 -225 -78 -290 -1 -14 -6 -49 -9 -77 -8 -58 -9 -264
-2 -331 60 -575 385 -940 1203 -1353 l123 -62 -47 -56 c-44 -52 -70 -84 -117
-141 -86 -106 -263 -360 -355 -510 -37 -59 -40 -65 -126 -215 -73 -126 -307
-591 -320 -635 -1 -3 -8 -21 -17 -40 -38 -87 -117 -276 -120 -290 -2 -8 -5
-17 -9 -20 -3 -3 -13 -27 -23 -55 -10 -27 -24 -63 -31 -80 -7 -16 -19 -46 -25
-65 -7 -19 -18 -51 -26 -70 -32 -86 -99 -275 -134 -380 -37 -112 -81 -235
-100 -275 -4 -11 -27 -69 -50 -130 -23 -60 -44 -116 -47 -122 -4 -10 94 -13
471 -13 447 0 476 1 476 18 4 165 10 303 14 327 3 17 7 50 11 75 3 25 8 56 10
70 3 14 7 40 10 58 23 141 86 369 150 547 25 68 45 128 45 134 0 6 4 11 8 11
5 0 9 6 9 13 0 14 62 161 119 282 21 44 39 87 40 95 2 8 8 16 13 18 6 2 11 12
11 23 0 10 5 19 10 19 6 0 10 9 10 19 0 11 4 22 8 25 5 3 24 36 42 73 19 37
39 75 46 83 7 8 14 20 15 25 4 13 23 47 98 173 35 59 72 123 83 142 54 94 326
492 340 498 5 2 8 10 8 17 0 7 3 15 8 17 4 2 31 36 61 76 29 39 58 72 65 72 6
0 67 -18 136 -41 69 -23 130 -42 135 -43 6 -1 37 -10 70 -20 33 -10 67 -20 75
-22 8 -2 91 -24 184 -49 94 -24 181 -46 195 -49 14 -3 76 -14 136 -25 61 -12
120 -23 131 -25 12 -3 48 -8 80 -12 33 -4 62 -9 67 -10 4 -1 18 -2 31 -3 l25
-1 0 -587 c0 -324 0 -616 1 -649 l0 -62 68 -7 c37 -4 81 -9 97 -12 39 -6 462
-11 507 -5 l35 4 0 1781 c0 980 4 1847 7 1927 11 232 19 346 31 441 4 30 9 79
10 109 2 30 5 55 5 55 1 0 3 11 5 25 21 201 40 350 50 411 3 15 -40 16 -479
17 l-483 1 -21 -42 c-40 -83 -55 -158 -59 -299 -3 -134 -3 -137 19 -144 36
-11 101 -79 130 -136 32 -64 54 -145 66 -248 5 -41 10 -539 10 -1107 l1 -1031
-47 3 c-60 4 -125 13 -237 31 -49 8 -103 17 -120 20 -16 2 -37 6 -45 7 -8 2
-33 7 -55 11 -22 4 -53 12 -70 16 -16 5 -45 11 -62 14 -67 12 -91 17 -183 41
-52 14 -105 28 -117 30 -12 3 -35 10 -50 16 -16 6 -30 11 -33 11 -6 1 -4 0
-80 23 -30 9 -64 20 -75 25 -11 5 -54 21 -95 35 -128 45 -200 75 -335 141
-540 262 -812 522 -904 865 -41 153 -43 341 -6 489 12 46 30 100 47 138 12 26
22 49 23 52 3 15 42 82 76 133 105 154 235 265 425 360 62 31 167 72 214 82
141 33 190 40 345 50 44 3 85 8 92 10 9 3 11 47 7 182 -2 98 -6 187 -9 198 -2
11 -4 22 -4 25 -1 5 -199 8 -204 4z"/>
<path d="M3444 565 c-1 -5 -5 -36 -8 -68 -3 -32 -10 -86 -15 -120 -6 -34 -13
-82 -15 -107 -3 -25 -8 -56 -11 -70 -2 -13 -7 -42 -10 -65 -3 -22 -8 -53 -12
-70 -15 -72 -62 -65 465 -65 l475 0 -8 53 c-4 28 -9 68 -12 87 -2 19 -6 45 -8
58 -10 48 -20 104 -30 177 -4 22 -8 51 -11 65 -2 14 -7 48 -10 75 -4 28 -8 51
-9 53 -8 9 -778 6 -781 -3z"/>
</g>
</svg>
