<?xml version="1.0" standalone="no"?>
<!DOCTYPE svg PUBLIC "-//W3C//DTD SVG 20010904//EN"
 "http://www.w3.org/TR/2001/REC-SVG-20010904/DTD/svg10.dtd">
<svg version="1.0" xmlns="http://www.w3.org/2000/svg"
 width="720.000000pt" height="720.000000pt" viewBox="0 0 720.000000 720.000000"
 preserveAspectRatio="xMidYMid meet">
<metadata>
Created by potrace 1.14, written by Peter Selinger 2001-2017
</metadata>
<g transform="translate(0.000000,720.000000) scale(0.100000,-0.100000)"
fill="#000000" stroke="none">
<path d="M3034 7092 l-531 -2 13 -88 c7 -48 15 -112 18 -142 3 -30 8 -75 10
-100 3 -25 8 -72 12 -105 4 -33 8 -71 10 -85 1 -14 6 -54 9 -90 4 -36 8 -80
10 -97 2 -18 7 -71 10 -117 4 -47 9 -116 12 -153 3 -37 7 -597 10 -1243 4
-1082 6 -1176 21 -1185 58 -34 272 -101 382 -120 19 -3 42 -8 50 -10 8 -2 38
-6 65 -10 28 -3 65 -7 84 -10 141 -17 459 -27 467 -14 2 4 5 105 5 225 l2 219
-24 0 c-13 0 -51 -5 -84 -12 -54 -11 -150 -24 -199 -27 -20 -1 -20 16 -19
1084 0 597 3 1110 6 1140 15 129 36 209 74 285 59 119 149 172 358 210 170 30
954 27 1190 -5 232 -32 446 -117 616 -245 388 -291 534 -793 358 -1229 -134
-331 -488 -616 -1099 -885 -30 -14 -83 -37 -116 -52 l-62 -28 4 -143 c9 -303
4 -274 63 -353 28 -38 58 -77 65 -86 32 -39 266 -381 266 -389 0 -4 4 -10 8
-12 11 -4 180 -279 268 -433 63 -112 264 -506 264 -519 0 -3 11 -30 25 -59 80
-176 183 -464 234 -657 74 -279 100 -454 105 -707 1 -68 6 -126 9 -130 7 -7
985 -9 991 -2 2 2 -32 96 -75 209 -44 113 -102 273 -130 355 -208 616 -461
1216 -681 1614 -133 241 -260 446 -382 618 -44 63 -88 125 -96 137 -17 26
-154 198 -187 236 -56 65 -73 85 -73 90 1 3 63 35 138 72 197 96 506 278 601
354 9 7 54 42 101 79 266 211 441 472 514 766 35 145 38 170 41 374 4 271 -36
466 -137 670 -134 272 -313 448 -591 583 -191 93 -425 164 -612 187 -27 3 -65
7 -83 10 -18 2 -67 7 -110 10 -42 4 -93 9 -112 12 -39 6 -1270 9 -2086 5z"/>
<path d="M2387 6504 c-1 -1 -74 -5 -162 -9 -88 -3 -176 -8 -195 -10 -19 -2
-66 -6 -105 -9 -358 -32 -685 -134 -933 -292 -252 -161 -444 -439 -528 -764
-32 -126 -43 -240 -39 -420 4 -184 5 -190 30 -310 77 -372 310 -683 705 -944
195 -129 285 -181 505 -293 83 -41 152 -77 154 -79 2 -2 -20 -32 -50 -66 -427
-495 -830 -1205 -1144 -2013 -107 -276 -122 -316 -220 -605 -35 -102 -93 -261
-130 -355 -36 -93 -70 -182 -75 -197 l-9 -28 500 0 c274 0 499 3 500 8 0 4 2
55 3 113 7 229 32 420 82 622 13 56 26 110 29 120 27 116 165 496 242 665 203
452 492 940 826 1392 55 74 103 139 107 143 4 5 63 -10 131 -32 274 -88 585
-176 693 -195 16 -3 52 -10 80 -16 135 -28 269 -50 383 -65 36 -5 52 -12 55
-23 2 -9 3 -370 2 -802 -1 -702 -6 -977 -20 -1135 -2 -27 -6 -79 -9 -115 -5
-60 -9 -96 -20 -190 -3 -19 -7 -55 -10 -80 -6 -49 -51 -338 -60 -383 l-5 -27
500 0 c470 0 500 1 500 18 0 9 -4 44 -10 77 -5 33 -12 78 -15 100 -9 58 -12
75 -39 240 -13 83 -27 175 -31 205 -4 30 -9 63 -11 73 -16 87 -19 456 -19
2357 0 1911 3 2334 20 2505 3 22 7 74 10 115 3 41 8 82 10 90 2 8 7 49 10 90
3 41 8 82 10 90 2 8 7 47 10 86 4 39 14 130 24 202 11 88 13 132 6 133 -5 0
-257 2 -559 3 -516 2 -550 1 -572 -16 -25 -21 -41 -61 -49 -130 -5 -46 -12
-99 -20 -148 -16 -96 -17 -140 -3 -140 8 0 43 -18 77 -40 34 -22 65 -40 69
-40 4 0 25 -17 48 -37 83 -77 130 -199 151 -393 3 -30 6 -543 7 -1139 l1
-1083 -93 6 c-51 4 -99 9 -105 11 -7 2 -34 6 -62 9 -76 8 -349 61 -500 97
-530 125 -996 319 -1345 557 -325 222 -509 472 -555 752 -4 25 -9 54 -11 65
-3 11 -4 70 -5 131 0 209 55 388 176 574 41 63 55 81 114 145 169 182 436 319
706 360 68 11 298 29 334 27 23 -2 23 -1 17 66 -3 37 -8 78 -11 92 -2 14 -11
81 -20 150 -9 68 -18 127 -21 129 -4 4 -53 9 -57 5z"/>
<path d="M2620 2371 c-1 -350 -3 -679 -5 -731 -5 -108 -10 -154 -40 -360 -8
-58 -17 -115 -19 -127 -5 -24 -19 -113 -21 -128 0 -5 -5 -32 -9 -60 -4 -27 -9
-59 -11 -70 -1 -11 -8 -55 -15 -98 -7 -43 -10 -80 -6 -84 6 -7 984 -9 990 -2
3 2 -6 67 -19 144 -32 193 -36 221 -51 365 -3 30 -7 66 -10 80 -2 14 -7 59 -9
100 -3 41 -8 92 -10 112 -10 88 -18 416 -19 842 -1 518 7 467 -81 479 -129 17
-440 94 -582 145 l-83 29 0 -636z"/>
</g>
</svg>
