<?xml version="1.0" standalone="no"?>
<!DOCTYPE svg PUBLIC "-//W3C//DTD SVG 20010904//EN"
 "http://www.w3.org/TR/2001/REC-SVG-20010904/DTD/svg10.dtd">
<svg version="1.0" xmlns="http://www.w3.org/2000/svg"
 width="700.000000pt" height="700.000000pt" viewBox="0 0 700.000000 700.000000"
 preserveAspectRatio="xMidYMid meet">
<metadata>
Created by potrace 1.14, written by Peter Selinger 2001-2017
</metadata>
<g transform="translate(0.000000,700.000000) scale(0.100000,-0.100000)"
fill="#000000" stroke="none">
<path d="M2988 6992 c-412 -1 -748 -4 -748 -6 0 -2 11 -62 25 -132 29 -152 33
-177 41 -224 3 -19 9 -60 14 -90 21 -125 38 -280 45 -415 2 -27 4 -614 4
-1303 l1 -1253 53 -23 c89 -40 427 -128 602 -157 67 -11 79 -10 270 31 110 23
205 49 211 56 7 9 11 90 11 240 l0 225 -26 -6 c-133 -34 -386 -82 -391 -75 -8
12 -4 1292 4 1610 4 146 9 335 11 420 2 104 8 176 19 220 60 231 138 323 316
374 95 27 114 29 360 40 63 3 171 9 240 12 201 11 505 6 625 -10 17 -3 53 -7
80 -10 197 -23 399 -79 550 -151 262 -126 427 -340 477 -622 22 -120 16 -344
-11 -448 -54 -205 -147 -361 -315 -525 -153 -149 -315 -260 -563 -384 -137
-68 -417 -186 -442 -186 -13 0 -13 9 -13 -253 0 -114 2 -211 6 -214 3 -3 53 7
111 22 l105 28 67 -18 c109 -29 311 -100 413 -145 375 -164 732 -501 908 -856
168 -337 161 -669 -19 -980 -162 -282 -392 -470 -730 -600 -88 -33 -279 -87
-352 -99 -18 -3 -43 -7 -57 -10 -14 -3 -41 -7 -60 -10 -19 -3 -46 -7 -60 -10
-14 -3 -56 -7 -95 -10 -38 -3 -81 -8 -95 -10 -150 -27 -847 -27 -980 0 -14 3
-50 10 -82 15 -159 29 -280 81 -333 143 -34 39 -50 88 -60 182 -4 28 -8 66
-10 85 -2 19 -7 62 -10 95 -4 33 -8 74 -10 92 -12 102 -18 344 -18 676 0 374
-1 377 -21 382 -12 3 -77 16 -146 30 -69 14 -136 28 -150 31 -60 13 -212 59
-293 90 -49 19 -90 34 -92 34 -2 0 -4 -111 -5 -247 -2 -354 -7 -655 -14 -828
-3 -82 -8 -215 -11 -295 -8 -209 -16 -331 -31 -430 -2 -19 -6 -50 -9 -67 -10
-82 -54 -263 -89 -361 l-15 -42 197 5 c108 2 616 7 1127 10 961 5 1458 11
1510 19 17 2 68 7 115 11 47 4 96 8 110 10 108 13 151 20 265 40 524 96 819
231 1043 476 85 94 93 103 154 194 97 146 209 394 234 520 2 11 8 40 13 65 20
90 23 118 26 281 4 267 -42 475 -155 700 -190 375 -596 726 -1070 924 -87 37
-331 127 -402 149 -32 10 -58 21 -58 24 0 4 51 33 112 66 239 124 519 307 664
431 199 171 325 337 409 540 72 173 95 312 91 535 -2 85 -6 164 -9 175 -2 11
-8 40 -12 65 -22 134 -109 343 -202 483 -59 88 -187 219 -274 280 -81 57 -234
134 -363 182 -98 36 -314 98 -377 109 -19 3 -74 12 -124 21 -93 16 -137 23
-215 29 -41 4 -72 7 -230 22 -69 7 -825 10 -1792 6z"/>
<path d="M2127 6344 c-1 -1 -74 -4 -163 -8 -88 -4 -171 -8 -185 -11 -13 -2
-51 -6 -84 -9 -112 -11 -150 -17 -273 -42 -115 -23 -259 -65 -342 -101 -274
-118 -429 -230 -582 -420 -132 -166 -233 -432 -263 -693 -6 -56 -7 -307 0
-339 2 -13 7 -49 11 -80 3 -31 17 -98 30 -150 121 -467 474 -814 1199 -1176
77 -38 142 -71 144 -72 2 -1 -28 -40 -66 -85 -233 -279 -432 -569 -623 -912
-101 -181 -278 -544 -360 -736 -34 -80 -65 -154 -70 -165 -47 -104 -193 -494
-280 -750 -32 -93 -88 -249 -125 -345 -37 -96 -73 -192 -81 -212 l-13 -37 499
1 498 0 0 102 c1 103 7 223 16 286 3 19 8 53 11 75 72 526 353 1220 752 1859
208 333 493 732 517 723 61 -24 514 -162 560 -171 6 -2 31 -8 56 -15 25 -7 54
-15 65 -17 11 -2 29 -6 40 -8 53 -13 314 -65 345 -70 19 -3 44 -7 55 -10 11
-2 60 -9 108 -16 l88 -13 -1 -771 c-1 -424 -1 -776 0 -781 0 -7 121 -11 370
-11 l370 1 1 1950 c0 1072 2 2000 4 2060 4 108 13 291 19 370 9 111 19 212 21
227 3 15 7 45 21 178 2 25 7 61 9 80 3 19 8 60 10 90 3 30 7 66 10 80 3 14 8
50 11 80 l6 55 -554 2 -553 1 -23 -21 c-71 -66 -122 -264 -97 -378 5 -21 13
-28 41 -32 88 -14 188 -97 239 -197 27 -54 61 -161 70 -222 4 -23 10 -63 15
-88 5 -25 9 -529 10 -1121 1 -1168 4 -1093 -52 -1084 -13 2 -50 6 -83 10 -76
8 -196 26 -265 40 -14 2 -36 7 -50 9 -182 31 -460 97 -625 149 -55 17 -102 31
-105 32 -3 1 -12 4 -20 8 -8 3 -53 19 -100 35 -217 76 -418 168 -626 288 -392
226 -613 467 -693 757 -31 110 -32 123 -37 262 -2 99 1 151 15 220 102 494
531 846 1086 891 139 11 147 12 197 13 l46 1 -3 141 c-4 132 -7 168 -21 260
l-5 35 -70 0 c-39 -1 -71 -2 -72 -2z"/>
<path d="M3557 432 c-9 -48 -19 -107 -23 -132 -3 -25 -8 -54 -10 -65 -2 -11
-7 -40 -10 -65 -3 -25 -10 -63 -15 -85 -4 -22 -9 -50 -9 -62 l0 -23 495 0
c272 0 495 3 495 7 0 6 -55 363 -64 413 -3 14 -5 35 -5 47 -2 51 0 51 -435 51
l-404 1 -15 -87z"/>
</g>
</svg>
